<mxfile host="app.diagrams.net" modified="2024-02-22T13:45:33.809Z" agent="Mozilla/5.0 (Windows NT 10.0; Win64; x64) AppleWebKit/537.36 (KHTML, like Gecko) Chrome/121.0.0.0 Safari/537.36" etag="8O7Qjkij40osZP0gq8uM" version="23.1.5" type="device">
  <diagram name="Página-1" id="_3HC6_cYMrILYURzxch0">
    <mxGraphModel dx="880" dy="1629" grid="1" gridSize="10" guides="1" tooltips="1" connect="1" arrows="1" fold="1" page="1" pageScale="1" pageWidth="827" pageHeight="1169" math="0" shadow="0">
      <root>
        <mxCell id="0" />
        <mxCell id="1" parent="0" />
        <mxCell id="y4AyUB4rlwCu-jTkQ_jL-1" value="Funcionário" style="shape=umlActor;verticalLabelPosition=bottom;verticalAlign=top;html=1;" vertex="1" parent="1">
          <mxGeometry x="70" y="100" width="30" height="60" as="geometry" />
        </mxCell>
        <mxCell id="y4AyUB4rlwCu-jTkQ_jL-2" value="Gerente RH" style="shape=umlActor;verticalLabelPosition=bottom;verticalAlign=top;html=1;" vertex="1" parent="1">
          <mxGeometry x="730" y="470" width="30" height="60" as="geometry" />
        </mxCell>
        <mxCell id="y4AyUB4rlwCu-jTkQ_jL-3" value="Sistema de RH" style="shape=umlActor;verticalLabelPosition=bottom;verticalAlign=top;html=1;" vertex="1" parent="1">
          <mxGeometry x="730" y="100" width="30" height="60" as="geometry" />
        </mxCell>
        <mxCell id="y4AyUB4rlwCu-jTkQ_jL-4" value="Expedição" style="shape=umlActor;verticalLabelPosition=bottom;verticalAlign=top;html=1;" vertex="1" parent="1">
          <mxGeometry x="100" y="470" width="30" height="60" as="geometry" />
        </mxCell>
        <mxCell id="y4AyUB4rlwCu-jTkQ_jL-5" value="Fazer Cadastramento do curso" style="ellipse;whiteSpace=wrap;html=1;" vertex="1" parent="1">
          <mxGeometry x="230" y="140" width="140" height="70" as="geometry" />
        </mxCell>
        <mxCell id="y4AyUB4rlwCu-jTkQ_jL-8" value="" style="endArrow=block;startArrow=block;endFill=1;startFill=1;html=1;rounded=0;entryX=0;entryY=0;entryDx=0;entryDy=0;exitX=1;exitY=0.3333333333333333;exitDx=0;exitDy=0;exitPerimeter=0;" edge="1" parent="1" source="y4AyUB4rlwCu-jTkQ_jL-1" target="y4AyUB4rlwCu-jTkQ_jL-5">
          <mxGeometry width="160" relative="1" as="geometry">
            <mxPoint x="30" y="204.5" as="sourcePoint" />
            <mxPoint x="190" y="204.5" as="targetPoint" />
            <Array as="points">
              <mxPoint x="251" y="120" />
            </Array>
          </mxGeometry>
        </mxCell>
        <mxCell id="y4AyUB4rlwCu-jTkQ_jL-9" value="Efetuar seleção" style="ellipse;whiteSpace=wrap;html=1;" vertex="1" parent="1">
          <mxGeometry x="460" y="350" width="140" height="70" as="geometry" />
        </mxCell>
        <mxCell id="y4AyUB4rlwCu-jTkQ_jL-23" value="Exibir relações do curso" style="ellipse;whiteSpace=wrap;html=1;" vertex="1" parent="1">
          <mxGeometry x="230" width="140" height="70" as="geometry" />
        </mxCell>
        <mxCell id="y4AyUB4rlwCu-jTkQ_jL-24" value="" style="endArrow=block;dashed=1;endFill=0;endSize=12;html=1;rounded=0;exitX=0.5;exitY=0;exitDx=0;exitDy=0;entryX=0.5;entryY=1;entryDx=0;entryDy=0;" edge="1" parent="1" source="y4AyUB4rlwCu-jTkQ_jL-5" target="y4AyUB4rlwCu-jTkQ_jL-23">
          <mxGeometry width="160" relative="1" as="geometry">
            <mxPoint x="330" y="140" as="sourcePoint" />
            <mxPoint x="490" y="140" as="targetPoint" />
          </mxGeometry>
        </mxCell>
        <mxCell id="y4AyUB4rlwCu-jTkQ_jL-25" value="" style="endArrow=block;startArrow=block;endFill=1;startFill=1;html=1;rounded=0;exitX=0.5;exitY=0;exitDx=0;exitDy=0;exitPerimeter=0;entryX=0;entryY=0.5;entryDx=0;entryDy=0;" edge="1" parent="1" source="y4AyUB4rlwCu-jTkQ_jL-1" target="y4AyUB4rlwCu-jTkQ_jL-23">
          <mxGeometry width="160" relative="1" as="geometry">
            <mxPoint x="90" y="80" as="sourcePoint" />
            <mxPoint x="250" y="80" as="targetPoint" />
            <Array as="points">
              <mxPoint x="85" y="40" />
            </Array>
          </mxGeometry>
        </mxCell>
        <mxCell id="y4AyUB4rlwCu-jTkQ_jL-26" value="Obter dados do funcionário" style="ellipse;whiteSpace=wrap;html=1;" vertex="1" parent="1">
          <mxGeometry x="570" width="140" height="70" as="geometry" />
        </mxCell>
        <mxCell id="y4AyUB4rlwCu-jTkQ_jL-28" value="" style="endArrow=block;dashed=1;endFill=0;endSize=12;html=1;rounded=0;exitX=0;exitY=0.5;exitDx=0;exitDy=0;entryX=1;entryY=0;entryDx=0;entryDy=0;" edge="1" parent="1" source="y4AyUB4rlwCu-jTkQ_jL-26" target="y4AyUB4rlwCu-jTkQ_jL-5">
          <mxGeometry width="160" relative="1" as="geometry">
            <mxPoint x="430" y="110" as="sourcePoint" />
            <mxPoint x="590" y="110" as="targetPoint" />
          </mxGeometry>
        </mxCell>
        <mxCell id="y4AyUB4rlwCu-jTkQ_jL-29" value="" style="endArrow=block;dashed=1;endFill=0;endSize=12;html=1;rounded=0;exitX=0;exitY=0;exitDx=0;exitDy=0;entryX=1;entryY=0.5;entryDx=0;entryDy=0;" edge="1" parent="1" source="y4AyUB4rlwCu-jTkQ_jL-26" target="y4AyUB4rlwCu-jTkQ_jL-23">
          <mxGeometry width="160" relative="1" as="geometry">
            <mxPoint x="400" y="34.5" as="sourcePoint" />
            <mxPoint x="560" y="34.5" as="targetPoint" />
          </mxGeometry>
        </mxCell>
        <mxCell id="y4AyUB4rlwCu-jTkQ_jL-31" value="" style="endArrow=block;startArrow=block;endFill=1;startFill=1;html=1;rounded=0;entryX=0;entryY=0.3333333333333333;entryDx=0;entryDy=0;entryPerimeter=0;exitX=0.5;exitY=1;exitDx=0;exitDy=0;" edge="1" parent="1" source="y4AyUB4rlwCu-jTkQ_jL-26" target="y4AyUB4rlwCu-jTkQ_jL-3">
          <mxGeometry width="160" relative="1" as="geometry">
            <mxPoint x="580" y="110" as="sourcePoint" />
            <mxPoint x="710" y="120" as="targetPoint" />
            <Array as="points">
              <mxPoint x="640" y="120" />
            </Array>
          </mxGeometry>
        </mxCell>
        <mxCell id="y4AyUB4rlwCu-jTkQ_jL-32" value="" style="endArrow=block;dashed=1;endFill=0;endSize=12;html=1;rounded=0;exitX=0;exitY=1;exitDx=0;exitDy=0;entryX=0.5;entryY=0;entryDx=0;entryDy=0;" edge="1" parent="1" source="y4AyUB4rlwCu-jTkQ_jL-26" target="y4AyUB4rlwCu-jTkQ_jL-9">
          <mxGeometry width="160" relative="1" as="geometry">
            <mxPoint x="330" y="280" as="sourcePoint" />
            <mxPoint x="490" y="280" as="targetPoint" />
            <Array as="points">
              <mxPoint x="560" y="210" />
            </Array>
          </mxGeometry>
        </mxCell>
        <mxCell id="y4AyUB4rlwCu-jTkQ_jL-33" value="" style="endArrow=block;startArrow=block;endFill=1;startFill=1;html=1;rounded=0;entryX=0.5;entryY=0;entryDx=0;entryDy=0;entryPerimeter=0;exitX=1;exitY=0.5;exitDx=0;exitDy=0;" edge="1" parent="1" source="y4AyUB4rlwCu-jTkQ_jL-9" target="y4AyUB4rlwCu-jTkQ_jL-2">
          <mxGeometry width="160" relative="1" as="geometry">
            <mxPoint x="500" y="490" as="sourcePoint" />
            <mxPoint x="660" y="490" as="targetPoint" />
            <Array as="points">
              <mxPoint x="745" y="385" />
            </Array>
          </mxGeometry>
        </mxCell>
        <mxCell id="y4AyUB4rlwCu-jTkQ_jL-34" value="liberar seleção" style="ellipse;whiteSpace=wrap;html=1;" vertex="1" parent="1">
          <mxGeometry x="310" y="465" width="140" height="70" as="geometry" />
        </mxCell>
        <mxCell id="y4AyUB4rlwCu-jTkQ_jL-35" value="" style="endArrow=block;startArrow=block;endFill=1;startFill=1;html=1;rounded=0;entryX=0.5;entryY=0.5;entryDx=0;entryDy=0;entryPerimeter=0;exitX=1;exitY=0.5;exitDx=0;exitDy=0;" edge="1" parent="1" source="y4AyUB4rlwCu-jTkQ_jL-34" target="y4AyUB4rlwCu-jTkQ_jL-2">
          <mxGeometry width="160" relative="1" as="geometry">
            <mxPoint x="530" y="499.5" as="sourcePoint" />
            <mxPoint x="690" y="499.5" as="targetPoint" />
          </mxGeometry>
        </mxCell>
        <mxCell id="y4AyUB4rlwCu-jTkQ_jL-36" value="" style="endArrow=block;startArrow=block;endFill=1;startFill=1;html=1;rounded=0;exitX=0.5;exitY=0.5;exitDx=0;exitDy=0;exitPerimeter=0;entryX=0;entryY=0.5;entryDx=0;entryDy=0;" edge="1" parent="1" source="y4AyUB4rlwCu-jTkQ_jL-4" target="y4AyUB4rlwCu-jTkQ_jL-34">
          <mxGeometry width="160" relative="1" as="geometry">
            <mxPoint x="130" y="499.5" as="sourcePoint" />
            <mxPoint x="290" y="499.5" as="targetPoint" />
          </mxGeometry>
        </mxCell>
        <mxCell id="y4AyUB4rlwCu-jTkQ_jL-37" value="Cadastrar critério de seleção" style="ellipse;whiteSpace=wrap;html=1;" vertex="1" parent="1">
          <mxGeometry x="414" y="590" width="140" height="70" as="geometry" />
        </mxCell>
        <mxCell id="y4AyUB4rlwCu-jTkQ_jL-38" value="" style="endArrow=block;startArrow=block;endFill=1;startFill=1;html=1;rounded=0;entryX=0;entryY=1;entryDx=0;entryDy=0;entryPerimeter=0;exitX=1;exitY=0.5;exitDx=0;exitDy=0;" edge="1" parent="1" source="y4AyUB4rlwCu-jTkQ_jL-37" target="y4AyUB4rlwCu-jTkQ_jL-2">
          <mxGeometry width="160" relative="1" as="geometry">
            <mxPoint x="530" y="560" as="sourcePoint" />
            <mxPoint x="690" y="560" as="targetPoint" />
          </mxGeometry>
        </mxCell>
      </root>
    </mxGraphModel>
  </diagram>
</mxfile>
